<svg xmlns="http://www.w3.org/2000/svg" width="256" height="256" fill="none"><g clip-path="url(#a)"><path fill="#000" d="M216 0H40C17.909 0 0 17.909 0 40v176c0 22.091 17.909 40 40 40h176c22.091 0 40-17.909 40-40V40c0-22.091-17.909-40-40-40Z"/><path fill="#fff" d="M168.524 64h21.714l-47.439 54.219L198.607 192H154.91l-34.225-44.747L81.523 192H59.796l50.741-57.994L57 64h44.807l30.936 40.901L168.524 64Zm-7.621 115.003h12.032L95.269 76.314H82.357l78.546 102.689Z"/></g><defs><clipPath id="a"><path fill="#fff" d="M0 0h256v256H0z"/></clipPath></defs></svg>